<svg width="12" height="12" viewBox="0 0 12 12" fill="none" xmlns="http://www.w3.org/2000/svg">
<path d="M6.00002 6.7L3.55002 9.15C3.45836 9.24167 3.34169 9.2875 3.20002 9.2875C3.05836 9.2875 2.94169 9.24167 2.85002 9.15C2.75836 9.05834 2.71252 8.94167 2.71252 8.8C2.71252 8.65834 2.75836 8.54167 2.85002 8.45L5.30002 6L2.85002 3.55C2.75836 3.45833 2.71252 3.34167 2.71252 3.2C2.71252 3.05833 2.75836 2.94167 2.85002 2.85C2.94169 2.75833 3.05836 2.7125 3.20002 2.7125C3.34169 2.7125 3.45836 2.75833 3.55002 2.85L6.00002 5.3L8.45003 2.85C8.54169 2.75833 8.65836 2.7125 8.80002 2.7125C8.94169 2.7125 9.05836 2.75833 9.15002 2.85C9.24169 2.94167 9.28753 3.05833 9.28753 3.2C9.28753 3.34167 9.24169 3.45833 9.15002 3.55L6.70002 6L9.15002 8.45C9.24169 8.54167 9.28753 8.65834 9.28753 8.8C9.28753 8.94167 9.24169 9.05834 9.15002 9.15C9.05836 9.24167 8.94169 9.2875 8.80002 9.2875C8.65836 9.2875 8.54169 9.24167 8.45003 9.15L6.00002 6.7Z" fill="white"/>
</svg>
