<svg width="12" height="12" viewBox="0 0 12 12" fill="none" xmlns="http://www.w3.org/2000/svg">
<path d="M6.00002 6.6999L3.55002 9.1499C3.45836 9.24157 3.34169 9.2874 3.20002 9.2874C3.05836 9.2874 2.94169 9.24157 2.85002 9.1499C2.75836 9.05824 2.71252 8.94157 2.71252 8.7999C2.71252 8.65824 2.75836 8.54157 2.85002 8.4499L5.30002 5.9999L2.85002 3.5499C2.75836 3.45824 2.71252 3.34157 2.71252 3.1999C2.71252 3.05824 2.75836 2.94157 2.85002 2.8499C2.94169 2.75824 3.05836 2.7124 3.20002 2.7124C3.34169 2.7124 3.45836 2.75824 3.55002 2.8499L6.00002 5.2999L8.45003 2.8499C8.54169 2.75824 8.65836 2.7124 8.80002 2.7124C8.94169 2.7124 9.05836 2.75824 9.15002 2.8499C9.24169 2.94157 9.28753 3.05824 9.28753 3.1999C9.28753 3.34157 9.24169 3.45824 9.15002 3.5499L6.70002 5.9999L9.15002 8.4499C9.24169 8.54157 9.28753 8.65824 9.28753 8.7999C9.28753 8.94157 9.24169 9.05824 9.15002 9.1499C9.05836 9.24157 8.94169 9.2874 8.80002 9.2874C8.65836 9.2874 8.54169 9.24157 8.45003 9.1499L6.00002 6.6999Z" fill="black"/>
</svg>
