<svg width="147" height="94" viewBox="0 0 147 94" fill="none" xmlns="http://www.w3.org/2000/svg">
<rect width="147" height="94" rx="10" fill="#EBEBEB"/>
<rect opacity="0.3" x="80" y="74" width="43" height="14" rx="7" fill="black"/>
<rect opacity="0.3" x="62" y="74" width="14" height="14" rx="7" fill="black"/>
<rect opacity="0.3" x="127" y="74" width="14" height="14" rx="7" fill="black"/>
<path opacity="0.3" d="M56.66 12.182H54.532V10.796H55.386C55.7967 10.796 56.1187 10.7447 56.352 10.642C56.5947 10.53 56.7673 10.348 56.87 10.096C56.982 9.844 57.038 9.49867 57.038 9.06H58.48V19H56.66V12.182ZM60.8006 19C60.8006 18.188 60.9126 17.4833 61.1366 16.886C61.3699 16.2793 61.7479 15.7287 62.2706 15.234C62.7933 14.7393 63.5119 14.254 64.4266 13.778C64.9119 13.5167 65.2806 13.2973 65.5326 13.12C65.7939 12.9333 65.9806 12.742 66.0926 12.546C66.2139 12.35 66.2746 12.112 66.2746 11.832C66.2746 11.4027 66.1346 11.062 65.8546 10.81C65.5746 10.5487 65.1779 10.418 64.6646 10.418C64.1046 10.418 63.6566 10.5767 63.3206 10.894C62.9846 11.2113 62.7793 11.6733 62.7046 12.28L60.8286 12.168C60.9219 11.1227 61.2999 10.306 61.9626 9.718C62.6346 9.13 63.5353 8.836 64.6646 8.836C65.3833 8.836 66.0039 8.962 66.5266 9.214C67.0586 9.45667 67.4599 9.802 67.7306 10.25C68.0106 10.698 68.1506 11.216 68.1506 11.804C68.1506 12.3173 68.0619 12.7513 67.8846 13.106C67.7166 13.4607 67.4459 13.7873 67.0726 14.086C66.7086 14.3847 66.1813 14.716 65.4906 15.08C64.6879 15.5093 64.0766 15.9293 63.6566 16.34C63.2366 16.7413 63.0126 17.1007 62.9846 17.418H68.1506V19H60.8006ZM70.077 17.04H72.135V19H70.077V17.04ZM70.077 11.874H72.135V13.834H70.077V11.874ZM78.0523 19.224C77.2123 19.224 76.4797 19.014 75.8543 18.594C75.229 18.174 74.7483 17.5767 74.4123 16.802C74.0763 16.018 73.9083 15.0987 73.9083 14.044C73.9083 12.9893 74.0763 12.07 74.4123 11.286C74.7577 10.502 75.2383 9.9 75.8543 9.48C76.4797 9.05067 77.2123 8.836 78.0523 8.836C78.8923 8.836 79.6203 9.046 80.2363 9.466C80.8617 9.886 81.3423 10.488 81.6783 11.272C82.0143 12.056 82.1823 12.98 82.1823 14.044C82.1823 15.0987 82.0143 16.018 81.6783 16.802C81.3517 17.5767 80.8757 18.174 80.2503 18.594C79.625 19.014 78.8923 19.224 78.0523 19.224ZM78.0523 17.642C78.5377 17.642 78.9483 17.5067 79.2843 17.236C79.6203 16.956 79.8723 16.55 80.0403 16.018C80.2177 15.4767 80.3063 14.8187 80.3063 14.044C80.3063 13.26 80.2177 12.5973 80.0403 12.056C79.8723 11.5147 79.6203 11.1087 79.2843 10.838C78.9483 10.558 78.5377 10.418 78.0523 10.418C77.567 10.418 77.1563 10.558 76.8203 10.838C76.4843 11.1087 76.2277 11.5147 76.0503 12.056C75.8823 12.5973 75.7983 13.26 75.7983 14.044C75.7983 14.8187 75.8823 15.4767 76.0503 16.018C76.2277 16.55 76.4843 16.956 76.8203 17.236C77.1563 17.5067 77.567 17.642 78.0523 17.642ZM87.6773 19.224C86.8373 19.224 86.1047 19.014 85.4793 18.594C84.854 18.174 84.3733 17.5767 84.0373 16.802C83.7013 16.018 83.5333 15.0987 83.5333 14.044C83.5333 12.9893 83.7013 12.07 84.0373 11.286C84.3827 10.502 84.8633 9.9 85.4793 9.48C86.1047 9.05067 86.8373 8.836 87.6773 8.836C88.5173 8.836 89.2453 9.046 89.8613 9.466C90.4867 9.886 90.9673 10.488 91.3033 11.272C91.6393 12.056 91.8073 12.98 91.8073 14.044C91.8073 15.0987 91.6393 16.018 91.3033 16.802C90.9767 17.5767 90.5007 18.174 89.8753 18.594C89.25 19.014 88.5173 19.224 87.6773 19.224ZM87.6773 17.642C88.1627 17.642 88.5733 17.5067 88.9093 17.236C89.2453 16.956 89.4973 16.55 89.6653 16.018C89.8427 15.4767 89.9313 14.8187 89.9313 14.044C89.9313 13.26 89.8427 12.5973 89.6653 12.056C89.4973 11.5147 89.2453 11.1087 88.9093 10.838C88.5733 10.558 88.1627 10.418 87.6773 10.418C87.192 10.418 86.7813 10.558 86.4453 10.838C86.1093 11.1087 85.8527 11.5147 85.6753 12.056C85.5073 12.5973 85.4233 13.26 85.4233 14.044C85.4233 14.8187 85.5073 15.4767 85.6753 16.018C85.8527 16.55 86.1093 16.956 86.4453 17.236C86.7813 17.5067 87.192 17.642 87.6773 17.642Z" fill="black"/>
<path d="M45.8168 39.8H51.7568C52.7701 39.8 53.6501 39.9733 54.3968 40.32C55.1568 40.6667 55.7435 41.1667 56.1568 41.82C56.5701 42.46 56.7768 43.2067 56.7768 44.06C56.7768 44.7 56.6368 45.2733 56.3568 45.78C56.0768 46.2867 55.6968 46.7 55.2168 47.02C54.7501 47.3267 54.2301 47.5133 53.6568 47.58L53.5568 47.38C54.4768 47.38 55.1835 47.5867 55.6768 48C56.1701 48.4133 56.4568 49.0467 56.5368 49.9L56.8968 54H54.2568L53.9568 50.28C53.9168 49.7067 53.7301 49.2933 53.3968 49.04C53.0768 48.7733 52.5501 48.64 51.8168 48.64H48.4168V54H45.8168V39.8ZM51.5968 46.36C52.3701 46.36 52.9768 46.1733 53.4168 45.8C53.8701 45.4267 54.0968 44.9 54.0968 44.22C54.0968 43.5267 53.8701 42.9933 53.4168 42.62C52.9635 42.2467 52.3168 42.06 51.4768 42.06H48.4168V46.36H51.5968ZM59.5863 39.8H62.1863V54H59.5863V39.8ZM70.9518 54.32C69.6185 54.32 68.4585 54.0067 67.4718 53.38C66.4985 52.7533 65.7518 51.8867 65.2318 50.78C64.7118 49.66 64.4518 48.3733 64.4518 46.92C64.4518 45.4933 64.7185 44.22 65.2518 43.1C65.7851 41.9667 66.5451 41.08 67.5318 40.44C68.5318 39.8 69.7118 39.48 71.0718 39.48C72.8051 39.48 74.1651 39.9133 75.1518 40.78C76.1518 41.6467 76.8051 42.84 77.1118 44.36L74.4118 44.5C74.2518 43.62 73.8985 42.94 73.3518 42.46C72.8185 41.98 72.0651 41.74 71.0918 41.74C69.7985 41.74 68.8185 42.2267 68.1518 43.2C67.4851 44.16 67.1518 45.4 67.1518 46.92C67.1518 47.9333 67.2918 48.8267 67.5718 49.6C67.8518 50.3733 68.2918 50.98 68.8918 51.42C69.4918 51.8467 70.2385 52.06 71.1318 52.06C71.8118 52.06 72.4051 51.9133 72.9118 51.62C73.4318 51.3267 73.8385 50.9267 74.1318 50.42C74.4251 49.9133 74.5918 49.34 74.6318 48.7H71.1118V46.68H77.1518V54H75.4718L75.3118 50.88L75.6318 51.08C75.4985 51.7067 75.2051 52.2667 74.7518 52.76C74.3118 53.2533 73.7585 53.64 73.0918 53.92C72.4251 54.1867 71.7118 54.32 70.9518 54.32ZM79.723 39.8H82.323V46.58L81.123 45.72H89.483L88.303 46.58V39.8H90.903V54H88.303V47.14L89.483 47.98H81.123L82.323 47.14V54H79.723V39.8ZM97.338 42.06H93.038V39.8H104.258V42.06H99.938V54H97.338V42.06Z" fill="black"/>
</svg>
