<svg width="147" height="94" viewBox="0 0 147 94" fill="none" xmlns="http://www.w3.org/2000/svg">
<rect width="147" height="94" rx="10" fill="#EBEBEB"/>
<rect opacity="0.3" x="52" y="74" width="43" height="14" rx="7" fill="black"/>
<rect opacity="0.3" x="6" y="74" width="14" height="14" rx="7" fill="black"/>
<rect opacity="0.3" x="127" y="74" width="14" height="14" rx="7" fill="black"/>
<path opacity="0.3" d="M56.66 12.182H54.532V10.796H55.386C55.7967 10.796 56.1187 10.7447 56.352 10.642C56.5947 10.53 56.7673 10.348 56.87 10.096C56.982 9.844 57.038 9.49867 57.038 9.06H58.48V19H56.66V12.182ZM60.8006 19C60.8006 18.188 60.9126 17.4833 61.1366 16.886C61.3699 16.2793 61.7479 15.7287 62.2706 15.234C62.7933 14.7393 63.5119 14.254 64.4266 13.778C64.9119 13.5167 65.2806 13.2973 65.5326 13.12C65.7939 12.9333 65.9806 12.742 66.0926 12.546C66.2139 12.35 66.2746 12.112 66.2746 11.832C66.2746 11.4027 66.1346 11.062 65.8546 10.81C65.5746 10.5487 65.1779 10.418 64.6646 10.418C64.1046 10.418 63.6566 10.5767 63.3206 10.894C62.9846 11.2113 62.7793 11.6733 62.7046 12.28L60.8286 12.168C60.9219 11.1227 61.2999 10.306 61.9626 9.718C62.6346 9.13 63.5353 8.836 64.6646 8.836C65.3833 8.836 66.0039 8.962 66.5266 9.214C67.0586 9.45667 67.4599 9.802 67.7306 10.25C68.0106 10.698 68.1506 11.216 68.1506 11.804C68.1506 12.3173 68.0619 12.7513 67.8846 13.106C67.7166 13.4607 67.4459 13.7873 67.0726 14.086C66.7086 14.3847 66.1813 14.716 65.4906 15.08C64.6879 15.5093 64.0766 15.9293 63.6566 16.34C63.2366 16.7413 63.0126 17.1007 62.9846 17.418H68.1506V19H60.8006ZM70.077 17.04H72.135V19H70.077V17.04ZM70.077 11.874H72.135V13.834H70.077V11.874ZM78.0523 19.224C77.2123 19.224 76.4797 19.014 75.8543 18.594C75.229 18.174 74.7483 17.5767 74.4123 16.802C74.0763 16.018 73.9083 15.0987 73.9083 14.044C73.9083 12.9893 74.0763 12.07 74.4123 11.286C74.7577 10.502 75.2383 9.9 75.8543 9.48C76.4797 9.05067 77.2123 8.836 78.0523 8.836C78.8923 8.836 79.6203 9.046 80.2363 9.466C80.8617 9.886 81.3423 10.488 81.6783 11.272C82.0143 12.056 82.1823 12.98 82.1823 14.044C82.1823 15.0987 82.0143 16.018 81.6783 16.802C81.3517 17.5767 80.8757 18.174 80.2503 18.594C79.625 19.014 78.8923 19.224 78.0523 19.224ZM78.0523 17.642C78.5377 17.642 78.9483 17.5067 79.2843 17.236C79.6203 16.956 79.8723 16.55 80.0403 16.018C80.2177 15.4767 80.3063 14.8187 80.3063 14.044C80.3063 13.26 80.2177 12.5973 80.0403 12.056C79.8723 11.5147 79.6203 11.1087 79.2843 10.838C78.9483 10.558 78.5377 10.418 78.0523 10.418C77.567 10.418 77.1563 10.558 76.8203 10.838C76.4843 11.1087 76.2277 11.5147 76.0503 12.056C75.8823 12.5973 75.7983 13.26 75.7983 14.044C75.7983 14.8187 75.8823 15.4767 76.0503 16.018C76.2277 16.55 76.4843 16.956 76.8203 17.236C77.1563 17.5067 77.567 17.642 78.0523 17.642ZM87.6773 19.224C86.8373 19.224 86.1047 19.014 85.4793 18.594C84.854 18.174 84.3733 17.5767 84.0373 16.802C83.7013 16.018 83.5333 15.0987 83.5333 14.044C83.5333 12.9893 83.7013 12.07 84.0373 11.286C84.3827 10.502 84.8633 9.9 85.4793 9.48C86.1047 9.05067 86.8373 8.836 87.6773 8.836C88.5173 8.836 89.2453 9.046 89.8613 9.466C90.4867 9.886 90.9673 10.488 91.3033 11.272C91.6393 12.056 91.8073 12.98 91.8073 14.044C91.8073 15.0987 91.6393 16.018 91.3033 16.802C90.9767 17.5767 90.5007 18.174 89.8753 18.594C89.25 19.014 88.5173 19.224 87.6773 19.224ZM87.6773 17.642C88.1627 17.642 88.5733 17.5067 88.9093 17.236C89.2453 16.956 89.4973 16.55 89.6653 16.018C89.8427 15.4767 89.9313 14.8187 89.9313 14.044C89.9313 13.26 89.8427 12.5973 89.6653 12.056C89.4973 11.5147 89.2453 11.1087 88.9093 10.838C88.5733 10.558 88.1627 10.418 87.6773 10.418C87.192 10.418 86.7813 10.558 86.4453 10.838C86.1093 11.1087 85.8527 11.5147 85.6753 12.056C85.5073 12.5973 85.4233 13.26 85.4233 14.044C85.4233 14.8187 85.5073 15.4767 85.6753 16.018C85.8527 16.55 86.1093 16.956 86.4453 17.236C86.7813 17.5067 87.192 17.642 87.6773 17.642Z" fill="black"/>
<path d="M52.982 54.32C51.8086 54.32 50.7953 54.12 49.942 53.72C49.0886 53.3067 48.4153 52.7267 47.922 51.98C47.4286 51.2333 47.142 50.3667 47.062 49.38L49.702 49.22C49.7953 49.8467 49.9753 50.3733 50.242 50.8C50.5086 51.2133 50.8686 51.5333 51.322 51.76C51.7886 51.9733 52.3553 52.08 53.022 52.08C53.862 52.08 54.5086 51.9267 54.962 51.62C55.4286 51.3 55.662 50.84 55.662 50.24C55.662 49.8533 55.5686 49.5267 55.382 49.26C55.1953 48.98 54.8553 48.7267 54.362 48.5C53.8686 48.26 53.1486 48.0267 52.202 47.8C50.9886 47.52 50.0353 47.2133 49.342 46.88C48.6486 46.5333 48.142 46.1067 47.822 45.6C47.5153 45.0933 47.362 44.4533 47.362 43.68C47.362 42.8533 47.562 42.1267 47.962 41.5C48.3753 40.86 48.9686 40.3667 49.742 40.02C50.5153 39.66 51.4286 39.48 52.482 39.48C53.5753 39.48 54.522 39.68 55.322 40.08C56.122 40.48 56.7486 41.0333 57.202 41.74C57.6553 42.4467 57.9353 43.2667 58.042 44.2L55.422 44.32C55.3686 43.8 55.2153 43.3467 54.962 42.96C54.7086 42.56 54.3686 42.2533 53.942 42.04C53.5286 41.8267 53.0286 41.72 52.442 41.72C51.6953 41.72 51.102 41.8933 50.662 42.24C50.222 42.5733 50.002 43.02 50.002 43.58C50.002 43.9667 50.0953 44.2867 50.282 44.54C50.4686 44.7933 50.782 45.0133 51.222 45.2C51.6753 45.3733 52.3353 45.56 53.202 45.76C54.4553 46.0267 55.4553 46.3667 56.202 46.78C56.9486 47.18 57.482 47.6533 57.802 48.2C58.1353 48.7333 58.302 49.3667 58.302 50.1C58.302 50.9533 58.082 51.7 57.642 52.34C57.202 52.9667 56.5753 53.4533 55.762 53.8C54.962 54.1467 54.0353 54.32 52.982 54.32ZM60.5121 39.8H66.0121C67.1054 39.8 68.0454 39.98 68.8321 40.34C69.6321 40.7 70.2454 41.22 70.6721 41.9C71.0988 42.58 71.3121 43.3867 71.3121 44.32C71.3121 45.2667 71.0988 46.0867 70.6721 46.78C70.2454 47.46 69.6321 47.98 68.8321 48.34C68.0454 48.7 67.1054 48.88 66.0121 48.88H63.1121V54H60.5121V39.8ZM65.8921 46.62C66.7721 46.62 67.4454 46.4267 67.9121 46.04C68.3921 45.6533 68.6321 45.08 68.6321 44.32C68.6321 43.5867 68.3921 43.0267 67.9121 42.64C67.4454 42.2533 66.7721 42.06 65.8921 42.06H63.1121V46.62H65.8921ZM73.7934 39.8H76.3934V53.2L74.9734 51.74H83.1334V54H73.7934V39.8ZM85.5121 39.8H88.1121V54H85.5121V39.8ZM94.5529 42.06H90.2529V39.8H101.473V42.06H97.1529V54H94.5529V42.06Z" fill="black"/>
</svg>
