<svg width="147" height="94" viewBox="0 0 147 94" fill="none" xmlns="http://www.w3.org/2000/svg">
<rect width="147" height="94" rx="10" fill="#EBEBEB"/>
<rect opacity="0.3" x="24" y="74" width="43" height="14" rx="7" fill="black"/>
<rect opacity="0.3" x="6" y="74" width="14" height="14" rx="7" fill="black"/>
<rect opacity="0.3" x="71" y="74" width="14" height="14" rx="7" fill="black"/>
<path opacity="0.3" d="M56.66 12.182H54.532V10.796H55.386C55.7967 10.796 56.1187 10.7447 56.352 10.642C56.5947 10.53 56.7673 10.348 56.87 10.096C56.982 9.844 57.038 9.49867 57.038 9.06H58.48V19H56.66V12.182ZM60.8006 19C60.8006 18.188 60.9126 17.4833 61.1366 16.886C61.3699 16.2793 61.7479 15.7287 62.2706 15.234C62.7933 14.7393 63.5119 14.254 64.4266 13.778C64.9119 13.5167 65.2806 13.2973 65.5326 13.12C65.7939 12.9333 65.9806 12.742 66.0926 12.546C66.2139 12.35 66.2746 12.112 66.2746 11.832C66.2746 11.4027 66.1346 11.062 65.8546 10.81C65.5746 10.5487 65.1779 10.418 64.6646 10.418C64.1046 10.418 63.6566 10.5767 63.3206 10.894C62.9846 11.2113 62.7793 11.6733 62.7046 12.28L60.8286 12.168C60.9219 11.1227 61.2999 10.306 61.9626 9.718C62.6346 9.13 63.5353 8.836 64.6646 8.836C65.3833 8.836 66.0039 8.962 66.5266 9.214C67.0586 9.45667 67.4599 9.802 67.7306 10.25C68.0106 10.698 68.1506 11.216 68.1506 11.804C68.1506 12.3173 68.0619 12.7513 67.8846 13.106C67.7166 13.4607 67.4459 13.7873 67.0726 14.086C66.7086 14.3847 66.1813 14.716 65.4906 15.08C64.6879 15.5093 64.0766 15.9293 63.6566 16.34C63.2366 16.7413 63.0126 17.1007 62.9846 17.418H68.1506V19H60.8006ZM70.077 17.04H72.135V19H70.077V17.04ZM70.077 11.874H72.135V13.834H70.077V11.874ZM78.0523 19.224C77.2123 19.224 76.4797 19.014 75.8543 18.594C75.229 18.174 74.7483 17.5767 74.4123 16.802C74.0763 16.018 73.9083 15.0987 73.9083 14.044C73.9083 12.9893 74.0763 12.07 74.4123 11.286C74.7577 10.502 75.2383 9.9 75.8543 9.48C76.4797 9.05067 77.2123 8.836 78.0523 8.836C78.8923 8.836 79.6203 9.046 80.2363 9.466C80.8617 9.886 81.3423 10.488 81.6783 11.272C82.0143 12.056 82.1823 12.98 82.1823 14.044C82.1823 15.0987 82.0143 16.018 81.6783 16.802C81.3517 17.5767 80.8757 18.174 80.2503 18.594C79.625 19.014 78.8923 19.224 78.0523 19.224ZM78.0523 17.642C78.5377 17.642 78.9483 17.5067 79.2843 17.236C79.6203 16.956 79.8723 16.55 80.0403 16.018C80.2177 15.4767 80.3063 14.8187 80.3063 14.044C80.3063 13.26 80.2177 12.5973 80.0403 12.056C79.8723 11.5147 79.6203 11.1087 79.2843 10.838C78.9483 10.558 78.5377 10.418 78.0523 10.418C77.567 10.418 77.1563 10.558 76.8203 10.838C76.4843 11.1087 76.2277 11.5147 76.0503 12.056C75.8823 12.5973 75.7983 13.26 75.7983 14.044C75.7983 14.8187 75.8823 15.4767 76.0503 16.018C76.2277 16.55 76.4843 16.956 76.8203 17.236C77.1563 17.5067 77.567 17.642 78.0523 17.642ZM87.6773 19.224C86.8373 19.224 86.1047 19.014 85.4793 18.594C84.854 18.174 84.3733 17.5767 84.0373 16.802C83.7013 16.018 83.5333 15.0987 83.5333 14.044C83.5333 12.9893 83.7013 12.07 84.0373 11.286C84.3827 10.502 84.8633 9.9 85.4793 9.48C86.1047 9.05067 86.8373 8.836 87.6773 8.836C88.5173 8.836 89.2453 9.046 89.8613 9.466C90.4867 9.886 90.9673 10.488 91.3033 11.272C91.6393 12.056 91.8073 12.98 91.8073 14.044C91.8073 15.0987 91.6393 16.018 91.3033 16.802C90.9767 17.5767 90.5007 18.174 89.8753 18.594C89.25 19.014 88.5173 19.224 87.6773 19.224ZM87.6773 17.642C88.1627 17.642 88.5733 17.5067 88.9093 17.236C89.2453 16.956 89.4973 16.55 89.6653 16.018C89.8427 15.4767 89.9313 14.8187 89.9313 14.044C89.9313 13.26 89.8427 12.5973 89.6653 12.056C89.4973 11.5147 89.2453 11.1087 88.9093 10.838C88.5733 10.558 88.1627 10.418 87.6773 10.418C87.192 10.418 86.7813 10.558 86.4453 10.838C86.1093 11.1087 85.8527 11.5147 85.6753 12.056C85.5073 12.5973 85.4233 13.26 85.4233 14.044C85.4233 14.8187 85.5073 15.4767 85.6753 16.018C85.8527 16.55 86.1093 16.956 86.4453 17.236C86.7813 17.5067 87.192 17.642 87.6773 17.642Z" fill="black"/>
<path d="M51.9496 39.8H54.5496V53.2L53.1296 51.74H61.2896V54H51.9496V39.8ZM63.6684 39.8H73.2284V42.06H66.2684V45.76H72.9884V48H66.2684V51.74H73.3884V54H63.6684V39.8ZM75.973 39.8H85.473V42.06H77.153L78.573 40.6V47.12L77.153 45.94H85.113V48.18H77.153L78.573 47V54H75.973V39.8ZM91.2052 42.06H86.9052V39.8H98.1252V42.06H93.8052V54H91.2052V42.06Z" fill="black"/>
</svg>
