<svg width="12" height="12" viewBox="0 0 12 12" fill="none" xmlns="http://www.w3.org/2000/svg">
<path d="M5.00002 7.6999L2.05002 10.6499C1.95836 10.7416 1.84169 10.7874 1.70002 10.7874C1.55836 10.7874 1.44169 10.7416 1.35002 10.6499C1.25836 10.5582 1.21252 10.4416 1.21252 10.2999C1.21252 10.1582 1.25836 10.0416 1.35002 9.9499L4.30002 6.9999H2.50002C2.35836 6.9999 2.23961 6.95199 2.14377 6.85615C2.04794 6.76032 2.00002 6.64157 2.00002 6.4999C2.00002 6.35824 2.04794 6.23949 2.14377 6.14365C2.23961 6.04782 2.35836 5.9999 2.50002 5.9999H5.50002C5.64169 5.9999 5.76044 6.04782 5.85627 6.14365C5.95211 6.23949 6.00002 6.35824 6.00002 6.4999V9.4999C6.00002 9.64157 5.95211 9.76032 5.85627 9.85615C5.76044 9.95199 5.64169 9.9999 5.50002 9.9999C5.35836 9.9999 5.23961 9.95199 5.14377 9.85615C5.04794 9.76032 5.00002 9.64157 5.00002 9.4999V7.6999ZM7.70002 4.9999H9.50002C9.64169 4.9999 9.76044 5.04782 9.85627 5.14365C9.95211 5.23949 10 5.35824 10 5.4999C10 5.64157 9.95211 5.76032 9.85627 5.85615C9.76044 5.95199 9.64169 5.9999 9.50002 5.9999H6.50002C6.35836 5.9999 6.23961 5.95199 6.14377 5.85615C6.04794 5.76032 6.00002 5.64157 6.00002 5.4999V2.4999C6.00002 2.35824 6.04794 2.23949 6.14377 2.14365C6.23961 2.04782 6.35836 1.9999 6.50002 1.9999C6.64169 1.9999 6.76044 2.04782 6.85627 2.14365C6.95211 2.23949 7.00002 2.35824 7.00002 2.4999V4.2999L9.95002 1.3499C10.0417 1.25824 10.1584 1.2124 10.3 1.2124C10.4417 1.2124 10.5584 1.25824 10.65 1.3499C10.7417 1.44157 10.7875 1.55824 10.7875 1.6999C10.7875 1.84157 10.7417 1.95824 10.65 2.0499L7.70002 4.9999Z" fill="black"/>
</svg>
