<svg width="12" height="12" viewBox="0 0 12 12" fill="none" xmlns="http://www.w3.org/2000/svg">
<path d="M5.00002 7.7L2.05002 10.65C1.95836 10.7417 1.84169 10.7875 1.70002 10.7875C1.55836 10.7875 1.44169 10.7417 1.35002 10.65C1.25836 10.5583 1.21252 10.4417 1.21252 10.3C1.21252 10.1583 1.25836 10.0417 1.35002 9.95L4.30002 7H2.50002C2.35836 7 2.23961 6.95209 2.14377 6.85625C2.04794 6.76042 2.00002 6.64167 2.00002 6.5C2.00002 6.35834 2.04794 6.23958 2.14377 6.14375C2.23961 6.04792 2.35836 6 2.50002 6H5.50002C5.64169 6 5.76044 6.04792 5.85627 6.14375C5.95211 6.23958 6.00002 6.35834 6.00002 6.5V9.5C6.00002 9.64167 5.95211 9.76042 5.85627 9.85625C5.76044 9.95208 5.64169 10 5.50002 10C5.35836 10 5.23961 9.95208 5.14377 9.85625C5.04794 9.76042 5.00002 9.64167 5.00002 9.5V7.7ZM7.70002 5H9.50002C9.64169 5 9.76044 5.04792 9.85627 5.14375C9.95211 5.23958 10 5.35834 10 5.5C10 5.64167 9.95211 5.76042 9.85627 5.85625C9.76044 5.95209 9.64169 6 9.50002 6H6.50002C6.35836 6 6.23961 5.95209 6.14377 5.85625C6.04794 5.76042 6.00002 5.64167 6.00002 5.5V2.5C6.00002 2.35833 6.04794 2.23958 6.14377 2.14375C6.23961 2.04792 6.35836 2 6.50002 2C6.64169 2 6.76044 2.04792 6.85627 2.14375C6.95211 2.23958 7.00002 2.35833 7.00002 2.5V4.3L9.95002 1.35C10.0417 1.25833 10.1584 1.2125 10.3 1.2125C10.4417 1.2125 10.5584 1.25833 10.65 1.35C10.7417 1.44167 10.7875 1.55833 10.7875 1.7C10.7875 1.84167 10.7417 1.95833 10.65 2.05L7.70002 5Z" fill="white"/>
</svg>
