<svg width="30" height="30" viewBox="0 0 30 30" fill="none" xmlns="http://www.w3.org/2000/svg">
<path d="M15.625 18.75C16.5 18.75 17.2396 18.4479 17.8438 17.8438C18.4479 17.2396 18.75 16.5 18.75 15.625V8.75H21.25C21.6042 8.75 21.901 8.63021 22.1406 8.39063C22.3802 8.15104 22.5 7.85417 22.5 7.5C22.5 7.14583 22.3802 6.84896 22.1406 6.60938C21.901 6.36979 21.6042 6.25 21.25 6.25H18.75C18.3958 6.25 18.099 6.36979 17.8594 6.60938C17.6198 6.84896 17.5 7.14583 17.5 7.5V13.125C17.2292 12.9167 16.9375 12.7604 16.625 12.6563C16.3125 12.5521 15.9792 12.5 15.625 12.5C14.75 12.5 14.0104 12.8021 13.4063 13.4063C12.8021 14.0104 12.5 14.75 12.5 15.625C12.5 16.5 12.8021 17.2396 13.4063 17.8438C14.0104 18.4479 14.75 18.75 15.625 18.75ZM10 22.5C9.3125 22.5 8.72396 22.2552 8.23438 21.7656C7.74479 21.276 7.5 20.6875 7.5 20V5C7.5 4.3125 7.74479 3.72396 8.23438 3.23438C8.72396 2.74479 9.3125 2.5 10 2.5H25C25.6875 2.5 26.276 2.74479 26.7656 3.23438C27.2552 3.72396 27.5 4.3125 27.5 5V20C27.5 20.6875 27.2552 21.276 26.7656 21.7656C26.276 22.2552 25.6875 22.5 25 22.5H10ZM5 27.5C4.3125 27.5 3.72396 27.2552 3.23438 26.7656C2.74479 26.276 2.5 25.6875 2.5 25V8.75C2.5 8.39583 2.61979 8.09896 2.85938 7.85938C3.09896 7.61979 3.39583 7.5 3.75 7.5C4.10417 7.5 4.40104 7.61979 4.64063 7.85938C4.88021 8.09896 5 8.39583 5 8.75V25H21.25C21.6042 25 21.901 25.1198 22.1406 25.3594C22.3802 25.599 22.5 25.8958 22.5 26.25C22.5 26.6042 22.3802 26.901 22.1406 27.1406C21.901 27.3802 21.6042 27.5 21.25 27.5H5Z" fill="white"/>
</svg>
