<svg width="40" height="40" viewBox="0 0 40 40" fill="none" xmlns="http://www.w3.org/2000/svg">
<path d="M16.6667 26.6667C17.1389 26.6667 17.5348 26.507 17.8542 26.1875C18.1737 25.8681 18.3334 25.4722 18.3334 25V15C18.3334 14.5278 18.1737 14.132 17.8542 13.8125C17.5348 13.4931 17.1389 13.3333 16.6667 13.3333C16.1945 13.3333 15.7987 13.4931 15.4792 13.8125C15.1598 14.132 15 14.5278 15 15V25C15 25.4722 15.1598 25.8681 15.4792 26.1875C15.7987 26.507 16.1945 26.6667 16.6667 26.6667ZM23.3334 26.6667C23.8056 26.6667 24.2014 26.507 24.5209 26.1875C24.8403 25.8681 25 25.4722 25 25V15C25 14.5278 24.8403 14.132 24.5209 13.8125C24.2014 13.4931 23.8056 13.3333 23.3334 13.3333C22.8612 13.3333 22.4653 13.4931 22.1459 13.8125C21.8264 14.132 21.6667 14.5278 21.6667 15V25C21.6667 25.4722 21.8264 25.8681 22.1459 26.1875C22.4653 26.507 22.8612 26.6667 23.3334 26.6667ZM20 36.6667C17.6945 36.6667 15.5278 36.2292 13.5 35.3542C11.4723 34.4792 9.70837 33.2917 8.20837 31.7917C6.70837 30.2917 5.52087 28.5278 4.64587 26.5C3.77087 24.4722 3.33337 22.3056 3.33337 20C3.33337 17.6945 3.77087 15.5278 4.64587 13.5C5.52087 11.4722 6.70837 9.70834 8.20837 8.20834C9.70837 6.70834 11.4723 5.52084 13.5 4.64584C15.5278 3.77084 17.6945 3.33334 20 3.33334C22.3056 3.33334 24.4723 3.77084 26.5 4.64584C28.5278 5.52084 30.2917 6.70834 31.7917 8.20834C33.2917 9.70834 34.4792 11.4722 35.3542 13.5C36.2292 15.5278 36.6667 17.6945 36.6667 20C36.6667 22.3056 36.2292 24.4722 35.3542 26.5C34.4792 28.5278 33.2917 30.2917 31.7917 31.7917C30.2917 33.2917 28.5278 34.4792 26.5 35.3542C24.4723 36.2292 22.3056 36.6667 20 36.6667Z" fill="white"/>
</svg>
