<svg width="40" height="40" viewBox="0 0 40 40" fill="none" xmlns="http://www.w3.org/2000/svg">
<path d="M17.75 26.25L25.875 21.0417C26.2639 20.7917 26.4584 20.4444 26.4584 20C26.4584 19.5555 26.2639 19.2083 25.875 18.9583L17.75 13.75C17.3334 13.4722 16.9098 13.4514 16.4792 13.6875C16.0487 13.9236 15.8334 14.2917 15.8334 14.7917V25.2083C15.8334 25.7083 16.0487 26.0764 16.4792 26.3125C16.9098 26.5486 17.3334 26.5278 17.75 26.25ZM20 36.6667C17.6945 36.6667 15.5278 36.2292 13.5 35.3542C11.4723 34.4792 9.70837 33.2917 8.20837 31.7917C6.70837 30.2917 5.52087 28.5278 4.64587 26.5C3.77087 24.4722 3.33337 22.3055 3.33337 20C3.33337 17.6944 3.77087 15.5278 4.64587 13.5C5.52087 11.4722 6.70837 9.70833 8.20837 8.20833C9.70837 6.70833 11.4723 5.52083 13.5 4.64583C15.5278 3.77083 17.6945 3.33333 20 3.33333C22.3056 3.33333 24.4723 3.77083 26.5 4.64583C28.5278 5.52083 30.2917 6.70833 31.7917 8.20833C33.2917 9.70833 34.4792 11.4722 35.3542 13.5C36.2292 15.5278 36.6667 17.6944 36.6667 20C36.6667 22.3055 36.2292 24.4722 35.3542 26.5C34.4792 28.5278 33.2917 30.2917 31.7917 31.7917C30.2917 33.2917 28.5278 34.4792 26.5 35.3542C24.4723 36.2292 22.3056 36.6667 20 36.6667Z" fill="white"/>
</svg>
