<svg width="30" height="30" viewBox="0 0 30 30" fill="none" xmlns="http://www.w3.org/2000/svg">
<path d="M15 22.5C17.0833 22.5 18.8542 21.7708 20.3125 20.3125C21.7708 18.8542 22.5 17.0833 22.5 15C22.5 13.1875 21.9219 11.5938 20.7656 10.2188C19.6094 8.84375 18.1458 7.97917 16.375 7.625C16 7.58333 15.6771 7.6875 15.4062 7.9375C15.1354 8.1875 15 8.5 15 8.875V15L10.6875 19.3125C10.4167 19.5833 10.2917 19.9062 10.3125 20.2812C10.3333 20.6562 10.4896 20.9583 10.7812 21.1875C11.3854 21.6667 12.0521 22.0052 12.7812 22.2031C13.5104 22.401 14.25 22.5 15 22.5ZM15 27.5C13.2708 27.5 11.6458 27.1719 10.125 26.5156C8.60417 25.8594 7.28125 24.9688 6.15625 23.8438C5.03125 22.7188 4.14062 21.3958 3.48438 19.875C2.82812 18.3542 2.5 16.7292 2.5 15C2.5 13.2708 2.82812 11.6458 3.48438 10.125C4.14062 8.60417 5.03125 7.28125 6.15625 6.15625C7.28125 5.03125 8.60417 4.14062 10.125 3.48438C11.6458 2.82812 13.2708 2.5 15 2.5C16.7292 2.5 18.3542 2.82812 19.875 3.48438C21.3958 4.14062 22.7188 5.03125 23.8438 6.15625C24.9688 7.28125 25.8594 8.60417 26.5156 10.125C27.1719 11.6458 27.5 13.2708 27.5 15C27.5 16.7292 27.1719 18.3542 26.5156 19.875C25.8594 21.3958 24.9688 22.7188 23.8438 23.8438C22.7188 24.9688 21.3958 25.8594 19.875 26.5156C18.3542 27.1719 16.7292 27.5 15 27.5Z" fill="white"/>
</svg>
