<svg width="30" height="30" viewBox="0 0 30 30" fill="none" xmlns="http://www.w3.org/2000/svg">
<path d="M13.5313 27.5C12.9688 27.5 12.4844 27.3125 12.0782 26.9375C11.6719 26.5625 11.4271 26.1042 11.3438 25.5625L11.0625 23.5C10.7917 23.3958 10.5365 23.2708 10.2969 23.125C10.0573 22.9792 9.82295 22.8229 9.59379 22.6562L7.65629 23.4688C7.13545 23.6979 6.61462 23.7188 6.09379 23.5312C5.57295 23.3438 5.1667 23.0104 4.87504 22.5312L3.40629 19.9688C3.11462 19.4896 3.03129 18.9792 3.15629 18.4375C3.28129 17.8958 3.56254 17.4479 4.00004 17.0938L5.65629 15.8438C5.63545 15.6979 5.62504 15.5573 5.62504 15.4219V14.5781C5.62504 14.4427 5.63545 14.3021 5.65629 14.1562L4.00004 12.9062C3.56254 12.5521 3.28129 12.1042 3.15629 11.5625C3.03129 11.0208 3.11462 10.5104 3.40629 10.0312L4.87504 7.46875C5.1667 6.98958 5.57295 6.65625 6.09379 6.46875C6.61462 6.28125 7.13545 6.30208 7.65629 6.53125L9.59379 7.34375C9.82295 7.17708 10.0625 7.02083 10.3125 6.875C10.5625 6.72917 10.8125 6.60417 11.0625 6.5L11.3438 4.4375C11.4271 3.89583 11.6719 3.4375 12.0782 3.0625C12.4844 2.6875 12.9688 2.5 13.5313 2.5H16.4688C17.0313 2.5 17.5157 2.6875 17.9219 3.0625C18.3282 3.4375 18.573 3.89583 18.6563 4.4375L18.9375 6.5C19.2084 6.60417 19.4636 6.72917 19.7032 6.875C19.9427 7.02083 20.1771 7.17708 20.4063 7.34375L22.3438 6.53125C22.8646 6.30208 23.3855 6.28125 23.9063 6.46875C24.4271 6.65625 24.8334 6.98958 25.125 7.46875L26.5938 10.0312C26.8855 10.5104 26.9688 11.0208 26.8438 11.5625C26.7188 12.1042 26.4375 12.5521 26 12.9062L24.3438 14.1562C24.3646 14.3021 24.375 14.4427 24.375 14.5781V15.4219C24.375 15.5573 24.3542 15.6979 24.3125 15.8438L25.9688 17.0938C26.4063 17.4479 26.6875 17.8958 26.8125 18.4375C26.9375 18.9792 26.8542 19.4896 26.5625 19.9688L25.0625 22.5312C24.7709 23.0104 24.3646 23.3438 23.8438 23.5312C23.323 23.7188 22.8021 23.6979 22.2813 23.4688L20.4063 22.6562C20.1771 22.8229 19.9375 22.9792 19.6875 23.125C19.4375 23.2708 19.1875 23.3958 18.9375 23.5L18.6563 25.5625C18.573 26.1042 18.3282 26.5625 17.9219 26.9375C17.5157 27.3125 17.0313 27.5 16.4688 27.5H13.5313ZM15.0625 19.375C16.2709 19.375 17.3021 18.9479 18.1563 18.0938C19.0105 17.2396 19.4375 16.2083 19.4375 15C19.4375 13.7917 19.0105 12.7604 18.1563 11.9062C17.3021 11.0521 16.2709 10.625 15.0625 10.625C13.8334 10.625 12.7969 11.0521 11.9532 11.9062C11.1094 12.7604 10.6875 13.7917 10.6875 15C10.6875 16.2083 11.1094 17.2396 11.9532 18.0938C12.7969 18.9479 13.8334 19.375 15.0625 19.375Z" fill="white"/>
</svg>
