<svg width="147" height="94" viewBox="0 0 147 94" fill="none" xmlns="http://www.w3.org/2000/svg">
<rect width="147" height="94" rx="10" fill="#EBEBEB"/>
<path opacity="0.3" d="M13.7968 12.182H11.6688V10.796H12.5228C12.9335 10.796 13.2555 10.7447 13.4888 10.642C13.7315 10.53 13.9042 10.348 14.0068 10.096C14.1188 9.844 14.1748 9.49867 14.1748 9.06H15.6168V19H13.7968V12.182ZM39.4974 19C39.4974 18.188 39.6094 17.4833 39.8334 16.886C40.0668 16.2793 40.4448 15.7287 40.9674 15.234C41.4901 14.7393 42.2088 14.254 43.1234 13.778C43.6088 13.5167 43.9774 13.2973 44.2294 13.12C44.4908 12.9333 44.6774 12.742 44.7894 12.546C44.9108 12.35 44.9714 12.112 44.9714 11.832C44.9714 11.4027 44.8314 11.062 44.5514 10.81C44.2714 10.5487 43.8748 10.418 43.3614 10.418C42.8014 10.418 42.3534 10.5767 42.0174 10.894C41.6814 11.2113 41.4761 11.6733 41.4014 12.28L39.5254 12.168C39.6188 11.1227 39.9968 10.306 40.6594 9.718C41.3314 9.13 42.2321 8.836 43.3614 8.836C44.0801 8.836 44.7008 8.962 45.2234 9.214C45.7554 9.45667 46.1568 9.802 46.4274 10.25C46.7074 10.698 46.8474 11.216 46.8474 11.804C46.8474 12.3173 46.7588 12.7513 46.5814 13.106C46.4134 13.4607 46.1428 13.7873 45.7694 14.086C45.4054 14.3847 44.8781 14.716 44.1874 15.08C43.3848 15.5093 42.7734 15.9293 42.3534 16.34C41.9334 16.7413 41.7094 17.1007 41.6814 17.418H46.8474V19H39.4974ZM70.3339 17.04H72.3919V19H70.3339V17.04ZM70.3339 11.874H72.3919V13.834H70.3339V11.874ZM99.8692 19.224C99.0292 19.224 98.2965 19.014 97.6712 18.594C97.0458 18.174 96.5652 17.5767 96.2292 16.802C95.8932 16.018 95.7252 15.0987 95.7252 14.044C95.7252 12.9893 95.8932 12.07 96.2292 11.286C96.5745 10.502 97.0552 9.9 97.6712 9.48C98.2965 9.05067 99.0292 8.836 99.8692 8.836C100.709 8.836 101.437 9.046 102.053 9.466C102.678 9.886 103.159 10.488 103.495 11.272C103.831 12.056 103.999 12.98 103.999 14.044C103.999 15.0987 103.831 16.018 103.495 16.802C103.168 17.5767 102.692 18.174 102.067 18.594C101.442 19.014 100.709 19.224 99.8692 19.224ZM99.8692 17.642C100.354 17.642 100.765 17.5067 101.101 17.236C101.437 16.956 101.689 16.55 101.857 16.018C102.034 15.4767 102.123 14.8187 102.123 14.044C102.123 13.26 102.034 12.5973 101.857 12.056C101.689 11.5147 101.437 11.1087 101.101 10.838C100.765 10.558 100.354 10.418 99.8692 10.418C99.3838 10.418 98.9732 10.558 98.6372 10.838C98.3012 11.1087 98.0445 11.5147 97.8672 12.056C97.6992 12.5973 97.6152 13.26 97.6152 14.044C97.6152 14.8187 97.6992 15.4767 97.8672 16.018C98.0445 16.55 98.3012 16.956 98.6372 17.236C98.9732 17.5067 99.3838 17.642 99.8692 17.642ZM131.054 19.224C130.214 19.224 129.481 19.014 128.856 18.594C128.231 18.174 127.75 17.5767 127.414 16.802C127.078 16.018 126.91 15.0987 126.91 14.044C126.91 12.9893 127.078 12.07 127.414 11.286C127.759 10.502 128.24 9.9 128.856 9.48C129.481 9.05067 130.214 8.836 131.054 8.836C131.894 8.836 132.622 9.046 133.238 9.466C133.863 9.886 134.344 10.488 134.68 11.272C135.016 12.056 135.184 12.98 135.184 14.044C135.184 15.0987 135.016 16.018 134.68 16.802C134.353 17.5767 133.877 18.174 133.252 18.594C132.627 19.014 131.894 19.224 131.054 19.224ZM131.054 17.642C131.539 17.642 131.95 17.5067 132.286 17.236C132.622 16.956 132.874 16.55 133.042 16.018C133.219 15.4767 133.308 14.8187 133.308 14.044C133.308 13.26 133.219 12.5973 133.042 12.056C132.874 11.5147 132.622 11.1087 132.286 10.838C131.95 10.558 131.539 10.418 131.054 10.418C130.569 10.418 130.158 10.558 129.822 10.838C129.486 11.1087 129.229 11.5147 129.052 12.056C128.884 12.5973 128.8 13.26 128.8 14.044C128.8 14.8187 128.884 15.4767 129.052 16.018C129.229 16.55 129.486 16.956 129.822 17.236C130.158 17.5067 130.569 17.642 131.054 17.642Z" fill="black"/>
<path d="M41.3609 54.32C40.1875 54.32 39.1742 54.12 38.3209 53.72C37.4675 53.3067 36.7942 52.7267 36.3009 51.98C35.8075 51.2333 35.5209 50.3667 35.4409 49.38L38.0809 49.22C38.1742 49.8467 38.3542 50.3733 38.6209 50.8C38.8875 51.2133 39.2475 51.5333 39.7009 51.76C40.1675 51.9733 40.7342 52.08 41.4009 52.08C42.2409 52.08 42.8875 51.9267 43.3409 51.62C43.8075 51.3 44.0409 50.84 44.0409 50.24C44.0409 49.8533 43.9475 49.5267 43.7609 49.26C43.5742 48.98 43.2342 48.7267 42.7409 48.5C42.2475 48.26 41.5275 48.0267 40.5809 47.8C39.3675 47.52 38.4142 47.2133 37.7209 46.88C37.0275 46.5333 36.5209 46.1067 36.2009 45.6C35.8942 45.0933 35.7409 44.4533 35.7409 43.68C35.7409 42.8533 35.9409 42.1267 36.3409 41.5C36.7542 40.86 37.3475 40.3667 38.1209 40.02C38.8942 39.66 39.8075 39.48 40.8609 39.48C41.9542 39.48 42.9009 39.68 43.7009 40.08C44.5009 40.48 45.1275 41.0333 45.5809 41.74C46.0342 42.4467 46.3142 43.2667 46.4209 44.2L43.8009 44.32C43.7475 43.8 43.5942 43.3467 43.3409 42.96C43.0875 42.56 42.7475 42.2533 42.3209 42.04C41.9075 41.8267 41.4075 41.72 40.8209 41.72C40.0742 41.72 39.4809 41.8933 39.0409 42.24C38.6009 42.5733 38.3809 43.02 38.3809 43.58C38.3809 43.9667 38.4742 44.2867 38.6609 44.54C38.8475 44.7933 39.1609 45.0133 39.6009 45.2C40.0542 45.3733 40.7142 45.56 41.5809 45.76C42.8342 46.0267 43.8342 46.3667 44.5809 46.78C45.3275 47.18 45.8609 47.6533 46.1809 48.2C46.5142 48.7333 46.6809 49.3667 46.6809 50.1C46.6809 50.9533 46.4609 51.7 46.0209 52.34C45.5809 52.9667 44.9542 53.4533 44.1409 53.8C43.3409 54.1467 42.4142 54.32 41.3609 54.32ZM48.891 39.8H54.391C55.4843 39.8 56.4243 39.98 57.211 40.34C58.011 40.7 58.6243 41.22 59.051 41.9C59.4777 42.58 59.691 43.3867 59.691 44.32C59.691 45.2667 59.4777 46.0867 59.051 46.78C58.6243 47.46 58.011 47.98 57.211 48.34C56.4243 48.7 55.4843 48.88 54.391 48.88H51.491V54H48.891V39.8ZM54.271 46.62C55.151 46.62 55.8243 46.4267 56.291 46.04C56.771 45.6533 57.011 45.08 57.011 44.32C57.011 43.5867 56.771 43.0267 56.291 42.64C55.8243 42.2533 55.151 42.06 54.271 42.06H51.491V46.62H54.271ZM64.5702 39.8H67.7502L72.8702 54H70.1502L68.9702 50.64H63.3502L62.1702 54H59.4502L64.5702 39.8ZM68.2102 48.42L66.1702 42.42L64.1102 48.42H68.2102ZM80.0045 54.32C78.7111 54.32 77.5711 54.0267 76.5845 53.44C75.5978 52.84 74.8245 51.98 74.2645 50.86C73.7045 49.74 73.4245 48.4267 73.4245 46.92C73.4245 45.4267 73.6978 44.12 74.2445 43C74.7911 41.8667 75.5578 41 76.5445 40.4C77.5445 39.7867 78.7111 39.48 80.0445 39.48C81.8045 39.48 83.1911 39.92 84.2045 40.8C85.2311 41.68 85.8978 42.9467 86.2045 44.6L83.4845 44.74C83.3111 43.7933 82.9311 43.06 82.3445 42.54C81.7711 42.0067 81.0045 41.74 80.0445 41.74C79.2445 41.74 78.5445 41.9533 77.9445 42.38C77.3578 42.7933 76.9045 43.3933 76.5845 44.18C76.2778 44.9533 76.1245 45.8667 76.1245 46.92C76.1245 47.9733 76.2845 48.8867 76.6045 49.66C76.9245 50.4333 77.3778 51.0267 77.9645 51.44C78.5511 51.8533 79.2378 52.06 80.0245 52.06C81.0511 52.06 81.8578 51.78 82.4445 51.22C83.0311 50.6467 83.4045 49.84 83.5645 48.8L86.2845 48.94C86.0045 50.6467 85.3245 51.9733 84.2445 52.92C83.1778 53.8533 81.7645 54.32 80.0045 54.32ZM88.6566 39.8H98.2166V42.06H91.2566V45.76H97.9766V48H91.2566V51.74H98.3766V54H88.6566V39.8ZM100.961 39.8H105.681C107.948 39.8 109.688 40.42 110.901 41.66C112.128 42.8867 112.741 44.64 112.741 46.92C112.741 49.1867 112.141 50.9333 110.941 52.16C109.741 53.3867 108.028 54 105.801 54H100.961V39.8ZM105.681 51.74C107.161 51.74 108.261 51.34 108.981 50.54C109.701 49.74 110.061 48.5333 110.061 46.92C110.061 45.28 109.701 44.06 108.981 43.26C108.261 42.46 107.161 42.06 105.681 42.06H103.561V51.74H105.681Z" fill="black"/>
</svg>
