<svg width="147" height="94" viewBox="0 0 147 94" fill="none" xmlns="http://www.w3.org/2000/svg">
<rect width="147" height="94" rx="10" fill="#EBEBEB"/>
<path opacity="0.3" d="M104.66 12.182H102.532V10.796H103.386C103.797 10.796 104.119 10.7447 104.352 10.642C104.595 10.53 104.767 10.348 104.87 10.096C104.982 9.844 105.038 9.49867 105.038 9.06H106.48V19H104.66V12.182ZM108.801 19C108.801 18.188 108.913 17.4833 109.137 16.886C109.37 16.2793 109.748 15.7287 110.271 15.234C110.793 14.7393 111.512 14.254 112.427 13.778C112.912 13.5167 113.281 13.2973 113.533 13.12C113.794 12.9333 113.981 12.742 114.093 12.546C114.214 12.35 114.275 12.112 114.275 11.832C114.275 11.4027 114.135 11.062 113.855 10.81C113.575 10.5487 113.178 10.418 112.665 10.418C112.105 10.418 111.657 10.5767 111.321 10.894C110.985 11.2113 110.779 11.6733 110.705 12.28L108.829 12.168C108.922 11.1227 109.3 10.306 109.963 9.718C110.635 9.13 111.535 8.836 112.665 8.836C113.383 8.836 114.004 8.962 114.527 9.214C115.059 9.45667 115.46 9.802 115.731 10.25C116.011 10.698 116.151 11.216 116.151 11.804C116.151 12.3173 116.062 12.7513 115.885 13.106C115.717 13.4607 115.446 13.7873 115.073 14.086C114.709 14.3847 114.181 14.716 113.491 15.08C112.688 15.5093 112.077 15.9293 111.657 16.34C111.237 16.7413 111.013 17.1007 110.985 17.418H116.151V19H108.801ZM118.077 17.04H120.135V19H118.077V17.04ZM118.077 11.874H120.135V13.834H118.077V11.874ZM126.052 19.224C125.212 19.224 124.48 19.014 123.854 18.594C123.229 18.174 122.748 17.5767 122.412 16.802C122.076 16.018 121.908 15.0987 121.908 14.044C121.908 12.9893 122.076 12.07 122.412 11.286C122.758 10.502 123.238 9.9 123.854 9.48C124.48 9.05067 125.212 8.836 126.052 8.836C126.892 8.836 127.62 9.046 128.236 9.466C128.862 9.886 129.342 10.488 129.678 11.272C130.014 12.056 130.182 12.98 130.182 14.044C130.182 15.0987 130.014 16.018 129.678 16.802C129.352 17.5767 128.876 18.174 128.25 18.594C127.625 19.014 126.892 19.224 126.052 19.224ZM126.052 17.642C126.538 17.642 126.948 17.5067 127.284 17.236C127.62 16.956 127.872 16.55 128.04 16.018C128.218 15.4767 128.306 14.8187 128.306 14.044C128.306 13.26 128.218 12.5973 128.04 12.056C127.872 11.5147 127.62 11.1087 127.284 10.838C126.948 10.558 126.538 10.418 126.052 10.418C125.567 10.418 125.156 10.558 124.82 10.838C124.484 11.1087 124.228 11.5147 124.05 12.056C123.882 12.5973 123.798 13.26 123.798 14.044C123.798 14.8187 123.882 15.4767 124.05 16.018C124.228 16.55 124.484 16.956 124.82 17.236C125.156 17.5067 125.567 17.642 126.052 17.642ZM135.677 19.224C134.837 19.224 134.105 19.014 133.479 18.594C132.854 18.174 132.373 17.5767 132.037 16.802C131.701 16.018 131.533 15.0987 131.533 14.044C131.533 12.9893 131.701 12.07 132.037 11.286C132.383 10.502 132.863 9.9 133.479 9.48C134.105 9.05067 134.837 8.836 135.677 8.836C136.517 8.836 137.245 9.046 137.861 9.466C138.487 9.886 138.967 10.488 139.303 11.272C139.639 12.056 139.807 12.98 139.807 14.044C139.807 15.0987 139.639 16.018 139.303 16.802C138.977 17.5767 138.501 18.174 137.875 18.594C137.25 19.014 136.517 19.224 135.677 19.224ZM135.677 17.642C136.163 17.642 136.573 17.5067 136.909 17.236C137.245 16.956 137.497 16.55 137.665 16.018C137.843 15.4767 137.931 14.8187 137.931 14.044C137.931 13.26 137.843 12.5973 137.665 12.056C137.497 11.5147 137.245 11.1087 136.909 10.838C136.573 10.558 136.163 10.418 135.677 10.418C135.192 10.418 134.781 10.558 134.445 10.838C134.109 11.1087 133.853 11.5147 133.675 12.056C133.507 12.5973 133.423 13.26 133.423 14.044C133.423 14.8187 133.507 15.4767 133.675 16.018C133.853 16.55 134.109 16.956 134.445 17.236C134.781 17.5067 135.192 17.642 135.677 17.642Z" fill="black"/>
<path d="M45.8168 39.8H51.7568C52.7701 39.8 53.6501 39.9733 54.3968 40.32C55.1568 40.6667 55.7435 41.1667 56.1568 41.82C56.5701 42.46 56.7768 43.2067 56.7768 44.06C56.7768 44.7 56.6368 45.2733 56.3568 45.78C56.0768 46.2867 55.6968 46.7 55.2168 47.02C54.7501 47.3267 54.2301 47.5133 53.6568 47.58L53.5568 47.38C54.4768 47.38 55.1835 47.5867 55.6768 48C56.1701 48.4133 56.4568 49.0467 56.5368 49.9L56.8968 54H54.2568L53.9568 50.28C53.9168 49.7067 53.7301 49.2933 53.3968 49.04C53.0768 48.7733 52.5501 48.64 51.8168 48.64H48.4168V54H45.8168V39.8ZM51.5968 46.36C52.3701 46.36 52.9768 46.1733 53.4168 45.8C53.8701 45.4267 54.0968 44.9 54.0968 44.22C54.0968 43.5267 53.8701 42.9933 53.4168 42.62C52.9635 42.2467 52.3168 42.06 51.4768 42.06H48.4168V46.36H51.5968ZM59.5863 39.8H62.1863V54H59.5863V39.8ZM70.9518 54.32C69.6185 54.32 68.4585 54.0067 67.4718 53.38C66.4985 52.7533 65.7518 51.8867 65.2318 50.78C64.7118 49.66 64.4518 48.3733 64.4518 46.92C64.4518 45.4933 64.7185 44.22 65.2518 43.1C65.7851 41.9667 66.5451 41.08 67.5318 40.44C68.5318 39.8 69.7118 39.48 71.0718 39.48C72.8051 39.48 74.1651 39.9133 75.1518 40.78C76.1518 41.6467 76.8051 42.84 77.1118 44.36L74.4118 44.5C74.2518 43.62 73.8985 42.94 73.3518 42.46C72.8185 41.98 72.0651 41.74 71.0918 41.74C69.7985 41.74 68.8185 42.2267 68.1518 43.2C67.4851 44.16 67.1518 45.4 67.1518 46.92C67.1518 47.9333 67.2918 48.8267 67.5718 49.6C67.8518 50.3733 68.2918 50.98 68.8918 51.42C69.4918 51.8467 70.2385 52.06 71.1318 52.06C71.8118 52.06 72.4051 51.9133 72.9118 51.62C73.4318 51.3267 73.8385 50.9267 74.1318 50.42C74.4251 49.9133 74.5918 49.34 74.6318 48.7H71.1118V46.68H77.1518V54H75.4718L75.3118 50.88L75.6318 51.08C75.4985 51.7067 75.2051 52.2667 74.7518 52.76C74.3118 53.2533 73.7585 53.64 73.0918 53.92C72.4251 54.1867 71.7118 54.32 70.9518 54.32ZM79.723 39.8H82.323V46.58L81.123 45.72H89.483L88.303 46.58V39.8H90.903V54H88.303V47.14L89.483 47.98H81.123L82.323 47.14V54H79.723V39.8ZM97.338 42.06H93.038V39.8H104.258V42.06H99.938V54H97.338V42.06Z" fill="black"/>
</svg>
