<svg width="147" height="94" viewBox="0 0 147 94" fill="none" xmlns="http://www.w3.org/2000/svg">
<rect width="147" height="94" rx="10" fill="#EBEBEB"/>
<path opacity="0.3" d="M8.66 12.182H6.532V10.796H7.386C7.79667 10.796 8.11867 10.7447 8.352 10.642C8.59467 10.53 8.76733 10.348 8.87 10.096C8.982 9.844 9.038 9.49867 9.038 9.06H10.48V19H8.66V12.182ZM12.8006 19C12.8006 18.188 12.9126 17.4833 13.1366 16.886C13.3699 16.2793 13.7479 15.7287 14.2706 15.234C14.7933 14.7393 15.5119 14.254 16.4266 13.778C16.9119 13.5167 17.2806 13.2973 17.5326 13.12C17.7939 12.9333 17.9806 12.742 18.0926 12.546C18.2139 12.35 18.2746 12.112 18.2746 11.832C18.2746 11.4027 18.1346 11.062 17.8546 10.81C17.5746 10.5487 17.1779 10.418 16.6646 10.418C16.1046 10.418 15.6566 10.5767 15.3206 10.894C14.9846 11.2113 14.7793 11.6733 14.7046 12.28L12.8286 12.168C12.9219 11.1227 13.2999 10.306 13.9626 9.718C14.6346 9.13 15.5353 8.836 16.6646 8.836C17.3833 8.836 18.0039 8.962 18.5266 9.214C19.0586 9.45667 19.4599 9.802 19.7306 10.25C20.0106 10.698 20.1506 11.216 20.1506 11.804C20.1506 12.3173 20.0619 12.7513 19.8846 13.106C19.7166 13.4607 19.4459 13.7873 19.0726 14.086C18.7086 14.3847 18.1813 14.716 17.4906 15.08C16.6879 15.5093 16.0766 15.9293 15.6566 16.34C15.2366 16.7413 15.0126 17.1007 14.9846 17.418H20.1506V19H12.8006ZM22.077 17.04H24.135V19H22.077V17.04ZM22.077 11.874H24.135V13.834H22.077V11.874ZM30.0523 19.224C29.2123 19.224 28.4797 19.014 27.8543 18.594C27.229 18.174 26.7483 17.5767 26.4123 16.802C26.0763 16.018 25.9083 15.0987 25.9083 14.044C25.9083 12.9893 26.0763 12.07 26.4123 11.286C26.7577 10.502 27.2383 9.9 27.8543 9.48C28.4797 9.05067 29.2123 8.836 30.0523 8.836C30.8923 8.836 31.6203 9.046 32.2363 9.466C32.8617 9.886 33.3423 10.488 33.6783 11.272C34.0143 12.056 34.1823 12.98 34.1823 14.044C34.1823 15.0987 34.0143 16.018 33.6783 16.802C33.3517 17.5767 32.8757 18.174 32.2503 18.594C31.625 19.014 30.8923 19.224 30.0523 19.224ZM30.0523 17.642C30.5377 17.642 30.9483 17.5067 31.2843 17.236C31.6203 16.956 31.8723 16.55 32.0403 16.018C32.2177 15.4767 32.3063 14.8187 32.3063 14.044C32.3063 13.26 32.2177 12.5973 32.0403 12.056C31.8723 11.5147 31.6203 11.1087 31.2843 10.838C30.9483 10.558 30.5377 10.418 30.0523 10.418C29.567 10.418 29.1563 10.558 28.8203 10.838C28.4843 11.1087 28.2277 11.5147 28.0503 12.056C27.8823 12.5973 27.7983 13.26 27.7983 14.044C27.7983 14.8187 27.8823 15.4767 28.0503 16.018C28.2277 16.55 28.4843 16.956 28.8203 17.236C29.1563 17.5067 29.567 17.642 30.0523 17.642ZM39.6773 19.224C38.8373 19.224 38.1047 19.014 37.4793 18.594C36.854 18.174 36.3733 17.5767 36.0373 16.802C35.7013 16.018 35.5333 15.0987 35.5333 14.044C35.5333 12.9893 35.7013 12.07 36.0373 11.286C36.3827 10.502 36.8633 9.9 37.4793 9.48C38.1047 9.05067 38.8373 8.836 39.6773 8.836C40.5173 8.836 41.2453 9.046 41.8613 9.466C42.4867 9.886 42.9673 10.488 43.3033 11.272C43.6393 12.056 43.8073 12.98 43.8073 14.044C43.8073 15.0987 43.6393 16.018 43.3033 16.802C42.9767 17.5767 42.5007 18.174 41.8753 18.594C41.25 19.014 40.5173 19.224 39.6773 19.224ZM39.6773 17.642C40.1627 17.642 40.5733 17.5067 40.9093 17.236C41.2453 16.956 41.4973 16.55 41.6653 16.018C41.8427 15.4767 41.9313 14.8187 41.9313 14.044C41.9313 13.26 41.8427 12.5973 41.6653 12.056C41.4973 11.5147 41.2453 11.1087 40.9093 10.838C40.5733 10.558 40.1627 10.418 39.6773 10.418C39.192 10.418 38.7813 10.558 38.4453 10.838C38.1093 11.1087 37.8527 11.5147 37.6753 12.056C37.5073 12.5973 37.4233 13.26 37.4233 14.044C37.4233 14.8187 37.5073 15.4767 37.6753 16.018C37.8527 16.55 38.1093 16.956 38.4453 17.236C38.7813 17.5067 39.192 17.642 39.6773 17.642Z" fill="black"/>
<path d="M51.9496 39.8H54.5496V53.2L53.1296 51.74H61.2896V54H51.9496V39.8ZM63.6684 39.8H73.2284V42.06H66.2684V45.76H72.9884V48H66.2684V51.74H73.3884V54H63.6684V39.8ZM75.973 39.8H85.473V42.06H77.153L78.573 40.6V47.12L77.153 45.94H85.113V48.18H77.153L78.573 47V54H75.973V39.8ZM91.2052 42.06H86.9052V39.8H98.1252V42.06H93.8052V54H91.2052V42.06Z" fill="black"/>
</svg>
