<svg width="40" height="40" viewBox="0 0 40 40" fill="none" xmlns="http://www.w3.org/2000/svg">
<path d="M20 22.3333L11.8333 30.5C11.5278 30.8056 11.1389 30.9583 10.6667 30.9583C10.1944 30.9583 9.80555 30.8056 9.49999 30.5C9.19443 30.1945 9.04166 29.8056 9.04166 29.3333C9.04166 28.8611 9.19443 28.4722 9.49999 28.1667L17.6667 20L9.49999 11.8333C9.19443 11.5278 9.04166 11.1389 9.04166 10.6667C9.04166 10.1944 9.19443 9.80556 9.49999 9.50001C9.80555 9.19445 10.1944 9.04167 10.6667 9.04167C11.1389 9.04167 11.5278 9.19445 11.8333 9.50001L20 17.6667L28.1667 9.50001C28.4722 9.19445 28.8611 9.04167 29.3333 9.04167C29.8055 9.04167 30.1944 9.19445 30.5 9.50001C30.8055 9.80556 30.9583 10.1944 30.9583 10.6667C30.9583 11.1389 30.8055 11.5278 30.5 11.8333L22.3333 20L30.5 28.1667C30.8055 28.4722 30.9583 28.8611 30.9583 29.3333C30.9583 29.8056 30.8055 30.1945 30.5 30.5C30.1944 30.8056 29.8055 30.9583 29.3333 30.9583C28.8611 30.9583 28.4722 30.8056 28.1667 30.5L20 22.3333Z" fill="#CBA951"/>
</svg>
