<svg width="24" height="24" viewBox="0 0 24 24" fill="none" xmlns="http://www.w3.org/2000/svg">
<path d="M11 13H5.87499L6.97499 14.075C7.17499 14.275 7.27499 14.5167 7.27499 14.8C7.27499 15.0833 7.17499 15.325 6.97499 15.525C6.77499 15.725 6.53332 15.825 6.24999 15.825C5.96665 15.825 5.72499 15.725 5.52499 15.525L2.69999 12.7C2.59999 12.6 2.52915 12.4917 2.48749 12.375C2.44582 12.2583 2.42499 12.1333 2.42499 12C2.42499 11.8667 2.44582 11.7417 2.48749 11.625C2.52915 11.5083 2.59999 11.4 2.69999 11.3L5.52499 8.475C5.72499 8.275 5.96249 8.175 6.23749 8.175C6.51249 8.175 6.74999 8.275 6.94999 8.475C7.14999 8.675 7.24999 8.9125 7.24999 9.1875C7.24999 9.4625 7.14999 9.7 6.94999 9.9L5.84999 11H11V5.85L9.87499 6.975C9.67499 7.175 9.44165 7.27084 9.17499 7.2625C8.90832 7.25417 8.67499 7.15 8.47499 6.95C8.27499 6.75 8.17499 6.5125 8.17499 6.2375C8.17499 5.9625 8.27499 5.725 8.47499 5.525L11.3 2.7C11.4 2.6 11.5083 2.52917 11.625 2.4875C11.7417 2.44584 11.8667 2.425 12 2.425C12.1333 2.425 12.2583 2.44584 12.375 2.4875C12.4917 2.52917 12.6 2.6 12.7 2.7L15.55 5.55C15.75 5.75 15.85 5.98334 15.85 6.25C15.85 6.51667 15.75 6.75 15.55 6.95C15.35 7.15 15.1125 7.25 14.8375 7.25C14.5625 7.25 14.325 7.15 14.125 6.95L13 5.85V11H18.125L17.025 9.925C16.825 9.725 16.725 9.48334 16.725 9.2C16.725 8.91667 16.825 8.675 17.025 8.475C17.225 8.275 17.4667 8.175 17.75 8.175C18.0333 8.175 18.275 8.275 18.475 8.475L21.3 11.3C21.4 11.4 21.4708 11.5083 21.5125 11.625C21.5542 11.7417 21.575 11.8667 21.575 12C21.575 12.1333 21.5542 12.2583 21.5125 12.375C21.4708 12.4917 21.4 12.6 21.3 12.7L18.45 15.55C18.25 15.75 18.0167 15.8458 17.75 15.8375C17.4833 15.8292 17.25 15.725 17.05 15.525C16.85 15.325 16.75 15.0875 16.75 14.8125C16.75 14.5375 16.85 14.3 17.05 14.1L18.15 13H13V18.125L14.075 17.025C14.275 16.825 14.5167 16.725 14.8 16.725C15.0833 16.725 15.325 16.825 15.525 17.025C15.725 17.225 15.825 17.4667 15.825 17.75C15.825 18.0333 15.725 18.275 15.525 18.475L12.7 21.3C12.6 21.4 12.4917 21.4708 12.375 21.5125C12.2583 21.5542 12.1333 21.575 12 21.575C11.8667 21.575 11.7417 21.5542 11.625 21.5125C11.5083 21.4708 11.4 21.4 11.3 21.3L8.44999 18.45C8.24999 18.25 8.15415 18.0125 8.16249 17.7375C8.17082 17.4625 8.27499 17.225 8.47499 17.025C8.67499 16.825 8.91249 16.725 9.18749 16.725C9.46249 16.725 9.69999 16.825 9.89999 17.025L11 18.15V13Z" fill="#CBA951"/>
</svg>
