<svg width="44" height="44" viewBox="0 0 44 44" fill="none" xmlns="http://www.w3.org/2000/svg">
<path d="M22.9167 27.5C24.2 27.5 25.2847 27.057 26.1708 26.1709C27.0569 25.2847 27.5 24.2 27.5 22.9167V12.8334H31.1667C31.6861 12.8334 32.1215 12.6577 32.4729 12.3063C32.8243 11.9549 33 11.5195 33 11C33 10.4806 32.8243 10.0452 32.4729 9.69377C32.1215 9.34238 31.6861 9.16669 31.1667 9.16669H27.5C26.9806 9.16669 26.5451 9.34238 26.1937 9.69377C25.8424 10.0452 25.6667 10.4806 25.6667 11V19.25C25.2694 18.9445 24.8417 18.7153 24.3833 18.5625C23.925 18.4097 23.4361 18.3334 22.9167 18.3334C21.6333 18.3334 20.5486 18.7764 19.6625 19.6625C18.7764 20.5486 18.3333 21.6334 18.3333 22.9167C18.3333 24.2 18.7764 25.2847 19.6625 26.1709C20.5486 27.057 21.6333 27.5 22.9167 27.5ZM14.6667 33C13.6583 33 12.7951 32.641 12.0771 31.9229C11.359 31.2049 11 30.3417 11 29.3334V7.33335C11 6.32502 11.359 5.46183 12.0771 4.74377C12.7951 4.02571 13.6583 3.66669 14.6667 3.66669H36.6667C37.675 3.66669 38.5382 4.02571 39.2562 4.74377C39.9743 5.46183 40.3333 6.32502 40.3333 7.33335V29.3334C40.3333 30.3417 39.9743 31.2049 39.2562 31.9229C38.5382 32.641 37.675 33 36.6667 33H14.6667ZM7.33333 40.3334C6.325 40.3334 5.4618 39.9743 4.74375 39.2563C4.02569 38.5382 3.66666 37.675 3.66666 36.6667V12.8334C3.66666 12.3139 3.84236 11.8785 4.19375 11.5271C4.54514 11.1757 4.98055 11 5.5 11C6.01944 11 6.45486 11.1757 6.80625 11.5271C7.15764 11.8785 7.33333 12.3139 7.33333 12.8334V36.6667H31.1667C31.6861 36.6667 32.1215 36.8424 32.4729 37.1938C32.8243 37.5452 33 37.9806 33 38.5C33 39.0195 32.8243 39.4549 32.4729 39.8063C32.1215 40.1577 31.6861 40.3334 31.1667 40.3334H7.33333Z" fill="#FFE5A2"/>
</svg>
