<svg width="40" height="40" viewBox="0 0 40 40" fill="none" xmlns="http://www.w3.org/2000/svg">
<path d="M13.3333 28.625V11.375C13.3333 10.9028 13.5 10.5069 13.8333 10.1875C14.1667 9.86805 14.5556 9.70833 15 9.70833C15.1389 9.70833 15.2847 9.72917 15.4375 9.77083C15.5903 9.8125 15.7361 9.875 15.875 9.95833L29.4583 18.5833C29.7083 18.75 29.8958 18.9583 30.0208 19.2083C30.1458 19.4583 30.2083 19.7222 30.2083 20C30.2083 20.2778 30.1458 20.5417 30.0208 20.7917C29.8958 21.0417 29.7083 21.25 29.4583 21.4167L15.875 30.0417C15.7361 30.125 15.5903 30.1875 15.4375 30.2292C15.2847 30.2708 15.1389 30.2917 15 30.2917C14.5556 30.2917 14.1667 30.1319 13.8333 29.8125C13.5 29.4931 13.3333 29.0972 13.3333 28.625Z" fill="#FFE5A2"/>
</svg>
