<svg width="44" height="44" viewBox="0 0 44 44" fill="none" xmlns="http://www.w3.org/2000/svg">
<path d="M22 33C25.0556 33 27.6528 31.9306 29.7917 29.7917C31.9306 27.6528 33 25.0556 33 22C33 19.3417 32.1521 17.0042 30.4562 14.9875C28.7604 12.9709 26.6139 11.7028 24.0167 11.1834C23.4667 11.1222 22.9931 11.275 22.5958 11.6417C22.1986 12.0084 22 12.4667 22 13.0167V22L15.675 28.325C15.2778 28.7222 15.0944 29.1959 15.125 29.7459C15.1556 30.2959 15.3847 30.7389 15.8125 31.075C16.6986 31.7778 17.6764 32.2743 18.7458 32.5646C19.8153 32.8549 20.9 33 22 33ZM22 40.3334C19.4639 40.3334 17.0806 39.8521 14.85 38.8896C12.6194 37.9271 10.6792 36.6209 9.02917 34.9709C7.37917 33.3209 6.07292 31.3806 5.11042 29.15C4.14792 26.9195 3.66667 24.5361 3.66667 22C3.66667 19.4639 4.14792 17.0806 5.11042 14.85C6.07292 12.6195 7.37917 10.6792 9.02917 9.02919C10.6792 7.37919 12.6194 6.07294 14.85 5.11044C17.0806 4.14794 19.4639 3.66669 22 3.66669C24.5361 3.66669 26.9194 4.14794 29.15 5.11044C31.3806 6.07294 33.3208 7.37919 34.9708 9.02919C36.6208 10.6792 37.9271 12.6195 38.8896 14.85C39.8521 17.0806 40.3333 19.4639 40.3333 22C40.3333 24.5361 39.8521 26.9195 38.8896 29.15C37.9271 31.3806 36.6208 33.3209 34.9708 34.9709C33.3208 36.6209 31.3806 37.9271 29.15 38.8896C26.9194 39.8521 24.5361 40.3334 22 40.3334Z" fill="#FFE5A2"/>
</svg>
